<svg width="25" height="24" viewBox="0 0 25 24" fill="none" xmlns="http://www.w3.org/2000/svg">
<path d="M5.8 11.5C5.8 7.79969 8.79969 4.8 12.5 4.8C16.2003 4.8 19.2 7.79969 19.2 11.5C19.2 15.2003 16.2003 18.2 12.5 18.2C8.79969 18.2 5.8 15.2003 5.8 11.5ZM12.5 3.2C7.91604 3.2 4.2 6.91604 4.2 11.5C4.2 16.084 7.91604 19.8 12.5 19.8C17.084 19.8 20.8 16.084 20.8 11.5C20.8 6.91604 17.084 3.2 12.5 3.2Z" fill="black" stroke="black" stroke-width="0.1" stroke-linecap="round" stroke-linejoin="round"/>
<path fill-rule="evenodd" clip-rule="evenodd" d="M18.4697 17.4697C18.7626 17.1768 19.2374 17.1768 19.5303 17.4697L21.5303 19.4697C21.8232 19.7626 21.8232 20.2374 21.5303 20.5303C21.2374 20.8232 20.7626 20.8232 20.4697 20.5303L18.4697 18.5303C18.1768 18.2374 18.1768 17.7626 18.4697 17.4697Z" fill="black"/>
</svg>
