<svg width="24" height="20" viewBox="0 0 24 20" fill="none" xmlns="http://www.w3.org/2000/svg">
<path d="M19.1495 17.7383L19.1495 17.7383H19.1467H19.1255C18.4753 17.7383 17.5597 17.7269 16.5638 17.7145L16.5612 17.7145C14.4978 17.6889 12.0892 17.6589 10.9921 17.7175C9.41695 17.8016 8.30299 17.4429 7.57463 16.9224C6.84896 16.4038 6.45931 15.6941 6.36321 14.9648C6.17382 13.5273 7.12763 11.8277 9.44529 11.4172C9.83751 11.3477 10.1511 11.0514 10.2488 10.6728C10.6461 9.13338 11.5208 8.20307 12.5562 7.70783C13.6145 7.20165 14.896 7.12604 16.0958 7.42345C17.2989 7.72167 18.3412 8.37497 18.9536 9.22755C19.5451 10.0511 19.7702 11.1014 19.3037 12.3542C19.066 12.9923 19.5161 13.7006 20.2115 13.7354C21.5373 13.8018 22.2578 14.8527 22.1961 15.8667C22.166 16.3618 21.9468 16.8368 21.5063 17.1833C21.063 17.532 20.3241 17.8046 19.1706 17.7395L19.1495 17.7383ZM21.0101 12.2367C21.3692 10.7408 21.0338 9.38109 20.2531 8.29417C19.3768 7.07408 17.9754 6.24096 16.4808 5.87045C14.9828 5.49913 13.3125 5.57248 11.8658 6.26444C10.486 6.9244 9.35819 8.12586 8.80086 9.91667C5.95241 10.5836 4.47871 12.9105 4.77692 15.1738C4.93089 16.3424 5.558 17.4478 6.64438 18.2242C7.72807 18.9986 9.22144 19.4144 11.0774 19.3153C12.1227 19.2594 14.4085 19.288 16.442 19.3135L16.4423 19.3135C17.454 19.3261 18.4028 19.338 19.1035 19.3383C20.5341 19.4148 21.6789 19.0832 22.4955 18.4409C23.3193 17.7929 23.7372 16.883 23.7931 15.9639C23.8914 14.3483 22.8629 12.6668 21.0101 12.2367Z" fill="black" stroke="black" stroke-width="0.1"/>
<path d="M5.73467 1.17504C5.58314 0.760015 5.12385 0.546412 4.70882 0.697947C4.29379 0.849482 4.08018 1.30877 4.23172 1.7238L4.63379 2.82501C4.78533 3.24004 5.24462 3.45364 5.65965 3.30211C6.07468 3.15057 6.28828 2.69128 6.13674 2.27625L5.73467 1.17504ZM10.8182 2.0519C11.0023 1.65024 10.8259 1.17542 10.4242 0.991346C10.0226 0.807276 9.54773 0.983667 9.36366 1.38533L8.9023 2.39207C8.71823 2.79372 8.89462 3.26855 9.29628 3.45262C9.69794 3.63669 10.1728 3.4603 10.3568 3.05864L10.8182 2.0519ZM6.42123 5.37608C7.40163 5.01237 8.46413 5.29252 9.14842 6.01162C9.453 6.33169 9.95937 6.34425 10.2794 6.03968C10.5995 5.7351 10.6121 5.22873 10.3075 4.90866C9.20002 3.74483 7.46885 3.28087 5.86472 3.87599C3.7073 4.67636 2.61004 7.08247 3.4 9.24605C3.5655 9.69932 3.80166 10.108 4.09205 10.4631C4.3718 10.805 4.87581 10.8555 5.2178 10.5758C5.55979 10.296 5.61025 9.79201 5.33051 9.45002C5.15238 9.23226 5.00623 8.98016 4.90295 8.69729C4.41183 7.3522 5.09777 5.86707 6.42123 5.37608ZM1.60495 4.26686C1.20441 4.08036 0.728523 4.25386 0.542018 4.6544C0.355513 5.05493 0.529018 5.53082 0.929552 5.71733L1.9283 6.18238C2.32883 6.36889 2.80472 6.19538 2.99123 5.79485C3.17773 5.39431 3.00423 4.91842 2.60369 4.73192L1.60495 4.26686ZM2.3289 10.5011C2.74314 10.3474 2.95437 9.88699 2.80069 9.47275C2.64701 9.05851 2.18662 8.84728 1.77238 9.00096L0.721945 9.39066C0.307705 9.54434 0.0964775 10.0047 0.250156 10.419C0.403834 10.8332 0.864222 11.0444 1.27846 10.8908L2.3289 10.5011Z" fill="black" stroke="black" stroke-width="0.1" stroke-linecap="round"/>
</svg>
